<?xml version="1.0" encoding="UTF-8"?>
<svg xmlns="http://www.w3.org/2000/svg" id="Laag_1" data-name="Laag 1" viewBox="0 0 315.64 160.28"><defs><style> .cls-1 { fill: #1d1d1b; } .cls-2 { fill: #e72f39; } .cls-3 { fill: #37b6ae; } .cls-4 { fill: #2ca437; } </style></defs><path class="cls-1" d="M309.58,151.67v-9.39c0-4.57-3.14-7.11-6.94-7.11-5,0-7.26,3.5-7.26,6.91v7a2.61,2.61,0,0,0,2.81,2.63h1.19v-9.33c0-2.3,1.2-3.61,2.93-3.61,2.07,0,3.26,1.19,3.26,3.91V149a2.67,2.67,0,0,0,2.93,2.63Zm-21-10.73c0,1.14-.87,1.55-4.67,1.55h-1.79l0-.53a3.45,3.45,0,0,1,3.38-3.44c1.85,0,3.05.81,3.05,2.42m3.76.48a6.23,6.23,0,0,0-6.45-6.25c-4.61,0-7.89,3.38-7.89,8.76a8,8,0,0,0,7.92,8.1c4.42,0,5.82-1.59,5.82-3.65v-1.25h-.15a7.3,7.3,0,0,1-4.93,1.52c-2.36,0-4.21-1.28-4.51-3.32h2.63c5.32,0,7.56-1,7.56-3.91m-15.84,8v-.87h-.74c-1.77,0-2.46-.51-2.46-2.12v-7.53c0-2-1.07-3-2.86-3h-1.14V146.8c0,3.25,1.7,5,4.81,5,1.7,0,2.39-.69,2.39-2.42M273.59,132a2.35,2.35,0,1,0-2.36,2.36,2.36,2.36,0,0,0,2.36-2.36m-11.68,8.91c0,1.14-.87,1.55-4.66,1.55h-1.8l0-.53a3.45,3.45,0,0,1,3.38-3.44c1.85,0,3.05.81,3.05,2.42m3.76.48a6.22,6.22,0,0,0-6.45-6.25c-4.6,0-7.89,3.38-7.89,8.76a8,8,0,0,0,7.92,8.1c4.42,0,5.83-1.59,5.83-3.65v-1.25h-.15a7.35,7.35,0,0,1-4.94,1.52c-2.36,0-4.21-1.28-4.51-3.32h2.63c5.32,0,7.56-1,7.56-3.91m-20.89,2.48c0,2.63-1.13,4.54-3.46,4.54-2.66,0-3.83-1.91-3.83-5.11,0-2.66,1.17-4.57,3.47-4.57,2.63,0,3.82,1.91,3.82,5.14m-11.44,0c0,4.27,2.78,8.13,7.62,8.13,5.2,0,8-3.86,8-8.7,0-4.27-2.78-8.16-7.62-8.16-5.2,0-8,3.89-8,8.73m-1.5-4.45V138c0-1.22-.86-2.63-3.34-2.63-4.25,0-5.95,3.08-5.95,6.31v7.41c0,1.67,1.13,2.57,2.93,2.57h1.1V142.4c0-2.45,1-3.43,2.78-3.43a5.72,5.72,0,0,1,2.33.48Zm-20.32-.72c1.76,0,3,1.22,3,3.73s-1.44,4.07-3.44,4.07-3.2-1.56-3.2-3.65c0-2.42,1.56-4.15,3.62-4.15m7,6.24v-2.75c0-4.12-2.57-7.05-6.57-7.05-5.2,0-8.19,3.68-8.19,8.22a6.36,6.36,0,0,0,6.69,6.52c2.31,0,3.83-1.23,4.16-2.4v.39c0,.15,0,.57,0,.81a8.15,8.15,0,0,1,0,.84c0,2.33-1.32,3.7-4.22,3.7a7.1,7.1,0,0,1-5.11-1.73h-.18v1.82c0,1.92,2.28,3.53,5.59,3.53,5.2,0,7.89-3.62,7.89-7.65,0-.54,0-1.41-.06-2.06s-.06-1.65-.06-2.19m-21.37-.8c0,2.57-1.34,4.3-3.28,4.3-2.39,0-4-1.82-4-5.05,0-2.78,1.23-4.69,3.44-4.69,2.57,0,3.82,1.64,3.82,5.44m4.13-1c0-4.06-3.05-8-7.32-8-5.68,0-8.07,3.71-8.07,9.06V154a2.74,2.74,0,0,0,2.81,2.78H190v-7.11A4.73,4.73,0,0,0,194,152c4.69,0,7.26-3.74,7.26-8.91m-22.68.78c0,2.63-1.14,4.54-3.47,4.54-2.66,0-3.83-1.91-3.83-5.11,0-2.66,1.17-4.57,3.47-4.57,2.63,0,3.83,1.91,3.83,5.14m-11.45,0c0,4.27,2.78,8.13,7.62,8.13,5.2,0,8-3.86,8-8.7,0-4.27-2.78-8.16-7.62-8.16-5.2,0-8,3.89-8,8.73m-21.55-13.75h-1.28v18.68c0,1.88.89,2.87,2.75,2.84l1.28,0v-7.86a68.43,68.43,0,0,0,5.62,6.87,3.92,3.92,0,0,0,2.63,1.11,2.47,2.47,0,0,0,2.72-2,6.78,6.78,0,0,1-3.11-2.1c-1.43-1.46-2.69-3.1-4-4.69a86.08,86.08,0,0,1,6.54-7.32v-.15h-2.3a4.14,4.14,0,0,0-3.2,1.05,49.37,49.37,0,0,0-4.93,5.85v-9.62a2.44,2.44,0,0,0-2.75-2.66m-5.71,21.4V138.67a2.56,2.56,0,0,0-2.87-2.78h-1.13v15.27a2.13,2.13,0,0,1-2.09,2.33s-1.38.12-1.95.12v1.47c0,1,1,1.82,2.6,1.82a5.07,5.07,0,0,0,5.44-5.35M140.3,132a2.31,2.31,0,0,0-2.3-2.33,2.35,2.35,0,1,0,0,4.69,2.33,2.33,0,0,0,2.3-2.36m-7.41,17.43v-.87h-.75c-1.76,0-2.45-.51-2.45-2.12v-7.53c0-2-1.07-3-2.87-3h-1.13V146.8c0,3.25,1.7,5,4.81,5,1.7,0,2.39-.69,2.39-2.42M130,132a2.35,2.35,0,1,0-2.36,2.36A2.36,2.36,0,0,0,130,132m-7.08,7.42V138c0-1.22-.87-2.63-3.35-2.63-4.24,0-6,3.08-6,6.31v7.41c0,1.67,1.14,2.57,2.93,2.57h1.11V142.4c0-2.45,1-3.43,2.78-3.43a5.8,5.8,0,0,1,2.33.48Zm-12.4,7.14c0-2.57-1.8-4-5.14-4.57-2.75-.45-3.23-.78-3.23-1.59,0-1,.77-1.79,3.23-1.79a7.08,7.08,0,0,1,4.6,1.49h.15v-1.52c0-1.56-1.5-3.44-5.14-3.44-4.13,0-6.85,2.57-6.85,5.59,0,2.45,1.65,3.8,5,4.27,2.78.39,3.35.84,3.35,1.77,0,1.19-1,1.76-2.93,1.76A8.09,8.09,0,0,1,98.79,147h-.15v1.82c0,1.64,2.21,3.17,5.17,3.17,4.34,0,6.73-2,6.73-5.44m-15.49,5.08v-9.39c0-4.57-3.13-7.11-6.93-7.11-5,0-7.26,3.5-7.26,6.91v7a2.61,2.61,0,0,0,2.81,2.63h1.19v-9.33c0-2.3,1.2-3.61,2.93-3.61,2.06,0,3.26,1.19,3.26,3.91V149A2.67,2.67,0,0,0,94,151.67ZM73.78,146.2c0,1.64-.84,2.48-2.57,2.48s-2.78-.75-2.78-2,.86-2,3.91-2h1.44Zm3.91,0v-3.71c0-5.56-3.23-7.23-6.81-7.23-4.25,0-5.86,2.15-5.86,4v1.28h.15c.6-.75,2.21-1.85,5.11-1.85,2.39,0,3.47.69,3.47,3v.21H72.34c-5.92,0-8,2.18-8,5.05s2.63,5.11,6.46,5.11h.8c3.59,0,6.1-2.36,6.1-5.77m-29.53-15H46.85v17.69a2.53,2.53,0,0,0,2.69,2.78h1.34V141.33a71.24,71.24,0,0,0,6.58,9.11,4.08,4.08,0,0,0,2.87,1.32A2.28,2.28,0,0,0,63,149.7a3.83,3.83,0,0,1-1.62-.84c-2.6-2.21-4.45-5.32-6.36-8.1a103.69,103.69,0,0,1,7.71-9.41v-.15H59.88c-1.58,0-2,.09-3.11,1.25a63.71,63.71,0,0,0-5.89,7.89V134a2.51,2.51,0,0,0-2.72-2.75"/><path class="cls-2" d="M63,49.39a10.94,10.94,0,0,0,9.2-9.8A7,7,0,0,0,64,32a10.94,10.94,0,0,0-9.2,9.81A7,7,0,0,0,63,49.39"/><path class="cls-3" d="M92.5,23.94A14.81,14.81,0,0,1,105,10.64c6.52-.83,11.5,3.76,11.12,10.26a14.81,14.81,0,0,1-12.46,13.29C97.11,35,92.13,30.44,92.5,23.94"/><path class="cls-3" d="M103.05,44.18C92,45.61,82.41,55.79,81.78,66.86l-.4,7c.44-7.71-3.6-13.83-9.86-16.31a91.83,91.83,0,0,1-30.26,25.3l-1.07,18.77a5.42,5.42,0,0,0,6.37,5.88,8.49,8.49,0,0,0,7.15-7.62L55,77.23A8.08,8.08,0,0,1,61.8,70a5.15,5.15,0,0,1,6,5.59l-.2,3.57A5.43,5.43,0,0,0,74,85a8.52,8.52,0,0,0,7.15-7.63l-1.71,29.8a5.43,5.43,0,0,0,6.38,5.88A8.49,8.49,0,0,0,93,105.46l2.31-40.34a8.28,8.28,0,0,1,7-7.43,5.6,5.6,0,0,1,4.47,1.25,45.53,45.53,0,0,1,6.74-13.07A17.75,17.75,0,0,0,103.05,44.18Z"/><path class="cls-3" d="M22.71,89.74h0a75.92,75.92,0,0,1-7.8,1.44,71.12,71.12,0,0,1-9.56.57c1.14,11.37,5.61,18.93,9.21,22.78s8.11,5.67,15.69,4.69l5.42-.69,0-.46C30.27,114.61,24.13,104.75,22.71,89.74Z"/><path class="cls-4" d="M113.48,45.87A45.61,45.61,0,0,0,106.73,59a5.4,5.4,0,0,1,1.76,4.47l-1.21,21.26a5.43,5.43,0,0,0,6.38,5.88,8.49,8.49,0,0,0,7.14-7.62L122,61.68c.41-7.18-3-13-8.54-15.81"/><path class="cls-2" d="M71.52,57.52a17.93,17.93,0,0,0-8.95-1C51.57,57.9,42.11,68,41.48,79l-.22,3.85a91.83,91.83,0,0,0,30.26-25.3"/><path class="cls-2" d="M34.94,37.15c-6.59.85-12.24,4-15.41,7.62C12.72,52.63,6.19,64.84,5.17,82.7a57,57,0,0,0,.18,9,71.12,71.12,0,0,0,9.56-.57,75.92,75.92,0,0,0,7.8-1.44,71.83,71.83,0,0,1-.19-11C23.65,59.1,33.24,43.45,40.25,36.91l0-.45Z"/><path class="cls-4" d="M127.5,88.68l0-.45c7.25-6,16.69-22.12,17.9-43.31,1.13-19.66-6.81-33.06-13.17-37.88l0-.45,5.33-.69c6.59-.84,12,.88,14.76,3.74,6,6.21,11.23,16.91,10.21,34.77-.94,16.51-8.1,28.71-13.19,34.73-4,4.82-8.88,7.86-16.47,8.84Z"/></svg>